<svg fill="none" height="100%" width="100%" viewBox="123 34 252 434" xmlns:xlink="http://www.w3.org/1999/xlink" xmlns="http://www.w3.org/2000/svg"><g transform="matrix(1,0,0,1,250,247.815)" visibility="visible" id="i0"><animate repeatCount="indefinite" begin="0s" calcMode="discrete" dur="1s" values="visible; hidden; hidden" keyTimes="0; 0.067; 1" attributeName="visibility" /><g id="i1"><path fill="#ff1e11" d="M-77.157,75.242C-67.797,52.92,-51.182,38.707,-28.917,30.617C-24.373,28.966,-20.704,25.889,-17.629,22.096C-10.931,13.834,-10.382,6.602,-19.046,0.942C-37.931,-11.394,-37.394,-27.946,-32.626,-46.663C-28.237,-63.892,-19.022,-77.178,-2.969,-84.849C4.175,-88.263,8.269,-94.937,15.687,-98.28C13.036,-94.268,10.218,-90.356,7.768,-86.224C1.797,-76.153,-3.809,-65.906,-3.624,-53.669C-3.46,-42.796,0.238,-37.822,10.636,-34.571C41.429,-24.942,50.434,2.787,49.224,27.747C49.043,31.473,47.118,31.718,44.227,32.213C27.086,35.149,17.802,45.175,15.749,62.6C13.577,81.037,20.392,93.728,36.175,100.638C46.076,104.973,56.233,102.864,64.896,93.597C68.472,89.772,70.636,90.011,74.534,92.809C101.052,111.844,106.999,138.765,93.358,168.262C81.205,194.54,58.864,204.85,33.28,209.878C4.381,215.558,-24.455,212.617,-51.844,201.685C-84.57,188.623,-102.313,159.723,-100.285,124.411C-99.091,103.611,-93.545,83.762,-85.619,64.447C-80.352,66.116,-80.289,71.56,-77.157,75.242Z" /></g><g id="i2"><path fill="#ff1e11" d="M81.472,-35.051C76.227,-34.547,72.331,-34.079,68.753,-37.987C73.626,-40.248,77.326,-39.728,81.472,-35.051Z" /></g><g id="i3"><path fill="#ff1e11" d="M26.925,-153.877C22.031,-152.404,18.793,-154.517,15.718,-157.575C21.111,-159.82,21.434,-159.719,26.925,-153.877Z" /></g></g><g transform="matrix(1,0,0,1,250,247.815)" visibility="hidden" id="i4"><animate repeatCount="indefinite" begin="0s" calcMode="discrete" dur="1s" values="hidden; visible; hidden; hidden" keyTimes="0; 0.067; 0.133; 1" attributeName="visibility" /><g id="i3"><path fill="#ff1e11" d="M-71.504,153.493C-74.429,155.797,-72.245,159.391,-73.54,162.506C-86.217,156.943,-94.4,147.137,-100.018,135.102C-106.553,121.103,-107.631,106.743,-102.035,91.977C-97.377,79.686,-92.235,67.659,-86.137,55.887C-81.966,57.835,-79.766,61.338,-76.822,63.776C-75.399,63.806,-74.848,62.909,-74.573,61.9C-69.123,41.879,-55.799,28.625,-37.994,19.12C-30.462,15.099,-22.376,12.661,-14.225,10.428C-11.661,9.726,-10.233,8.958,-9.785,5.987C-8.91,0.184,-8,-5.544,-9.624,-11.326C-11.908,-19.46,-16.219,-22.061,-24.436,-20.18C-26.161,-19.785,-27.727,-17.896,-29.594,-19.228C-31.677,-20.715,-31.998,-23.328,-32.502,-25.573C-36.924,-45.26,-34.514,-64.002,-24.262,-81.54C-15.771,-96.065,-4.169,-107.285,11.975,-114.104C11.106,-112.747,10.333,-111.318,9.355,-110.045C-4.261,-92.321,-5.142,-69.186,6.957,-49.971C11.829,-42.233,18.055,-35.791,25.047,-29.999C29.544,-26.274,34.053,-22.559,38.469,-18.739C51,-7.899,54.315,5.686,50.762,21.535C49.923,25.28,48.236,26.665,44.631,27.528C35.911,29.615,28.386,33.846,23.133,41.485C14.015,54.746,18.394,73.638,28.6,84.699C36.357,93.105,45.814,95.686,56.728,94.266C66.455,93,69.899,89.356,71.689,78.365C81.209,80.732,88.042,86.555,93.305,94.376C101.203,106.112,105.772,119.577,105.647,133.254C105.478,151.719,100.751,169.516,86.138,182.856C84.167,184.655,82.131,186.325,79.628,187.363C77.421,188.278,75.386,189.685,73.969,186.065C73.241,184.205,71.106,185.11,69.752,185.75C66.802,187.145,64.556,189.555,62.691,192.097C55.028,202.543,44.219,207.874,32.031,210.318C14.641,213.805,-2.839,213.746,-19.908,208.331C-45.098,200.34,-60.981,183.05,-69.02,158.184C-69.539,156.578,-68.79,154.329,-71.504,153.493Z" /></g></g><g transform="matrix(1,0,0,1,250,247.815)" visibility="hidden" id="i5"><animate repeatCount="indefinite" begin="0s" calcMode="discrete" dur="1s" values="hidden; visible; hidden; hidden" keyTimes="0; 0.133; 0.2; 1" attributeName="visibility" /><g id="i3"><path fill="#ff1e11" d="M-80.335,147.346C-96.456,136.553,-108.002,123.95,-109.374,103.784C-110.492,87.354,-109.446,71.508,-102.863,56.295C-100.1,49.911,-96.437,44.123,-90.739,39.85C-85.658,46.474,-80.954,48.257,-72.843,44.917C-65.293,41.808,-58.102,37.727,-51.016,33.619C-45.294,30.301,-39.897,26.402,-34.477,22.589C-26.236,16.791,-18.019,11.005,-8.248,7.944C-6.492,7.394,-4.776,6.6,-3.178,5.682C4.776,1.112,6.02,-3.415,1.124,-11.151C-1.419,-15.17,-4.291,-19.024,-7.366,-22.654C-13.115,-29.441,-20.221,-31.655,-28.733,-28.17C-29.407,-27.894,-30.247,-28.026,-31.454,-27.935C-36.177,-47.945,-37.454,-67.7,-29.359,-87.121C-22.486,-103.611,-9.458,-112.73,7.391,-117.041C8.334,-117.282,9.392,-117.072,9.942,-117.072C9.031,-108.425,7.771,-100.14,7.361,-91.813C6.458,-73.462,12.444,-57.387,24.63,-43.682C30.092,-37.539,35.693,-31.506,41.454,-25.643C50.283,-16.658,53.539,-5.921,52.082,6.396C51.078,14.882,47.254,21.315,39.035,24.898C33.95,27.115,29.132,29.957,24.244,32.609C15.793,37.194,12.005,44.225,11.563,53.952C10.547,76.304,23.842,85.731,43.439,87.247C60.581,88.573,68.997,80.07,75.334,64.427C83.713,72.589,88.878,82.198,90.176,93.39C91.556,105.289,95.627,115.415,102.626,125.392C111.487,138.023,111.518,152.841,105.886,167.236C104.214,171.509,100.716,174.586,96.091,175.968C95.639,175.653,95.076,175.448,94.809,175.046C89.012,166.32,81.935,165.879,75.193,173.869C74.511,174.677,73.838,175.523,73.332,176.446C64.032,193.404,49.112,202.934,30.879,207.245C19.598,209.912,7.999,212.131,-3.54,212.631C-32.268,213.875,-51.969,199.821,-63.287,173.911C-66.976,165.467,-69.329,156.437,-72.213,147.648C-72.953,145.392,-73.116,142.914,-74.074,140.775C-74.601,139.598,-76.257,138.185,-77.359,138.223C-78.383,138.258,-79.858,139.928,-80.211,141.146C-80.703,142.841,-80.335,144.786,-80.335,147.346Z" /></g></g><g transform="matrix(1,0,0,1,250,247.815)" visibility="hidden" id="i6"><animate repeatCount="indefinite" begin="0s" calcMode="discrete" dur="1s" values="hidden; visible; hidden; hidden" keyTimes="0; 0.2; 0.267; 1" attributeName="visibility" /><g id="i3"><path fill="#ff1e11" d="M-91.652,113.937C-89.495,121.51,-87.739,127.675,-85.794,134.506C-105.426,124.981,-115.97,109.407,-119.13,88.9C-122.93,64.241,-112.201,45.768,-92.849,31.514C-88.214,28.1,-82.936,25.362,-82.192,18.498C-77.637,21.424,-76.611,24.871,-77.38,29.679C-78.448,36.358,-74.885,39.756,-68.098,38.749C-64.771,38.256,-61.265,37.148,-58.443,35.364C-38.725,22.901,-19.102,10.287,0.389,-2.528C4.106,-4.972,7.406,-8.249,10.365,-11.611C18.396,-20.736,16.468,-28.652,5.251,-33.333C3.347,-34.128,1.186,-34.317,-0.864,-34.751C-11.282,-36.958,-18.438,-42.699,-21.806,-53.119C-29.928,-78.246,-23.228,-99.034,-1.6,-114.561C2.748,-117.683,6.808,-121.564,13.054,-122.259C11.28,-115.85,9.736,-110.068,8.075,-104.321C4.658,-92.498,8.534,-82.386,15.399,-73.008C21.604,-64.531,29.594,-57.869,38.298,-52.234C44.816,-48.014,48.069,-42.243,50.077,-35.055C52.135,-27.689,54.981,-20.546,57.401,-13.278C58.402,-10.272,59.494,-7.247,60.018,-4.141C61.17,2.683,57.997,7.387,51.122,8.374C46.98,8.968,42.661,8.201,38.436,8.387C36.233,8.484,33.184,8.572,32.014,9.942C20.475,23.459,12.448,38.539,14.962,57.037C16.467,68.11,22.466,76.576,33.682,79.462C46.721,82.817,59.088,80.051,69.588,71.65C72.835,69.052,74.408,64.363,76.771,60.593C81.35,70.392,90.573,77.275,98.703,85.136C105.423,91.633,111.675,98.456,115.649,107.058C119.909,116.278,121.032,125.785,118.684,135.751C116.22,146.209,111.75,155.625,105.148,164.372C103.841,162.188,102.879,160.312,101.671,158.609C97.044,152.084,89.488,151.48,84.242,157.592C81.887,160.336,79.721,163.723,78.841,167.169C75.171,181.542,66.051,191.276,53.643,198.482C42.743,204.813,31.067,209.095,18.551,210.483C3.275,212.177,-12.028,214.132,-27.428,211.197C-39.159,208.961,-74.5,188.686,-70.137,149.317C-68.569,135.169,-73.058,121.008,-91.652,113.937Z" /></g></g><g transform="matrix(1,0,0,1,250,247.815)" visibility="hidden" id="i7"><animate repeatCount="indefinite" begin="0s" calcMode="discrete" dur="1s" values="hidden; visible; hidden; hidden" keyTimes="0; 0.267; 0.333; 1" attributeName="visibility" /><g id="i3"><path fill="#ff1e11" d="M-98.572,110.637C-99.557,109.969,-100.728,109.46,-101.513,108.599C-113.191,95.789,-118.085,80.816,-117.144,63.424C-116.212,46.202,-111.435,30.611,-100.881,16.926C-98.784,14.207,-96.443,11.615,-93.902,9.31C-86.544,2.636,-86.386,2.207,-91.334,-7.653C-89.357,-6.976,-87.846,-6.854,-86.884,-6.064C-80.79,-1.063,-78.069,5.845,-77.05,13.344C-76.38,18.27,-76.431,23.333,-76.574,28.322C-76.83,37.255,-73.255,40.37,-64.949,37.097C-47.961,30.402,-31.051,23.479,-14.343,16.117C-5.804,12.354,1.707,6.745,7.698,-0.601C16.762,-11.716,18.745,-24.096,12.763,-37.052C9.249,-44.662,4.294,-51.606,-0.034,-58.885C-4.161,-56.097,-7.442,-53.88,-10.863,-51.569C-26.323,-83.79,-15.508,-108.633,15.594,-125.98C14.301,-120.837,12.927,-116.48,12.164,-112.019C11.41,-107.61,10.765,-103.07,10.984,-98.633C11.33,-91.623,14.512,-86.773,21.395,-83.261C30.517,-78.607,39.271,-72.815,47.182,-66.298C59.794,-55.909,65.41,-41.763,65.078,-25.471C64.922,-17.794,64.326,-10.097,63.407,-2.472C62.653,3.782,60.553,4.898,54.063,4.039C52.829,3.876,51.446,4.073,50.257,4.475C40.527,7.767,31.917,12.939,25.229,20.789C13.581,34.461,17.172,58.598,32.656,67.427C37.709,70.309,44.136,71.053,50.057,72.05C54.194,72.746,58.542,72.317,62.791,72.199C70.066,71.997,74.674,68.269,76.348,61.186C77.137,57.847,77.584,54.427,78.305,50.371C90.133,55.289,100.033,62.536,105.458,73.673C118.031,99.484,120.416,126.717,113.284,154.935C112.263,152.6,111.283,150.247,110.211,147.936C108.341,143.907,105.803,140.473,100.906,140.32C96.073,140.169,94.039,143.915,92.395,147.561C90.657,151.416,89.151,155.416,87.977,159.478C79.174,189.934,57.871,205.785,27.64,210.97C11.223,213.786,-5.281,213.332,-21.224,208.475C-43.308,201.747,-57.399,186.321,-65.774,165.143C-71.499,150.667,-73.43,135.469,-75.276,120.191C-76.579,109.412,-78.326,98.685,-79.979,87.951C-80.299,85.876,-81.036,83.853,-81.698,81.845C-82.708,78.78,-84.638,76.817,-88.121,77.037C-91.898,77.276,-93.948,79.55,-94.377,83.079C-95.424,91.697,-99.018,100.021,-97.427,108.959C-97.366,109.302,-97.953,109.76,-98.572,110.637Z" /></g></g><g transform="matrix(1,0,0,1,250,247.815)" visibility="hidden" id="i8"><animate repeatCount="indefinite" begin="0s" calcMode="discrete" dur="1s" values="hidden; visible; hidden; hidden" keyTimes="0; 0.333; 0.4; 1" attributeName="visibility" /><g id="i3"><path fill="#ff1e11" d="M-87.32,48.183C-93.492,56.848,-98.035,66.141,-111.086,68.308C-103.5,56.957,-107.146,48.058,-112.673,39.004C-119.426,27.941,-117.947,21.156,-108.012,12.748C-106.191,11.207,-104.265,9.749,-102.663,8C-96.069,0.8,-94.634,-4.052,-96.117,-13.847C-88.869,-12.892,-84.532,-8.774,-82.974,-2.035C-82.028,2.057,-82.167,6.39,-81.637,10.592C-81.142,14.512,-80.998,18.62,-79.654,22.259C-76.933,29.626,-70.697,31.842,-63.565,28.548C-57.765,25.869,-53.884,21.191,-50.951,15.72C-47.638,9.54,-43.47,4.151,-37.757,0.019C-30.124,-5.501,-21.396,-8.103,-12.253,-6.951C-2.686,-5.745,1.749,-10.459,5,-18.247C9.894,-29.971,11.943,-42.164,11.358,-54.77C10.982,-62.877,1.882,-73.726,-5.875,-75.974C-10.785,-77.397,-12.832,-76.034,-16.314,-69.019C-31.043,-93.477,-25.634,-126.657,10.788,-139.596C11.428,-133.338,11.897,-127.14,12.724,-120.99C14.853,-105.164,21.699,-91.944,33.76,-81.16C44.089,-71.925,53.436,-61.67,56.926,-47.611C59.869,-35.756,61.955,-23.823,58.35,-10.837C55.664,-10.837,53.088,-10.804,50.513,-10.846C47.33,-10.898,44.141,-11.187,40.966,-11.07C29.064,-10.63,21.094,-4.398,17.709,7.034C14.819,16.796,14.713,26.744,15.414,36.829C16.121,46.997,21.369,54.053,30.379,57.482C36.406,59.776,43.276,60.824,49.748,60.744C58.928,60.63,65.221,53.65,66.196,44.467C66.332,43.187,66.399,41.899,66.493,40.672C88.176,39.266,109.933,55.973,115.127,77.636C118.857,93.193,115.882,108.139,111.202,123.223C110.395,122.756,109.497,122.55,109.18,122.006C104.651,114.248,96.369,113.018,90.767,119.927C88.429,122.81,86.989,126.957,86.506,130.706C85.084,141.74,84.799,152.927,83.243,163.937C80.293,184.817,68.251,198.25,48.419,205.256C30.856,211.46,12.717,213.572,-5.619,212.397C-24.693,211.175,-41.29,202.987,-55.687,190.536C-57.809,188.701,-59.072,185.852,-60.663,183.427C-65.609,175.889,-70.567,168.36,-75.435,160.773C-83.75,147.814,-84.831,133.99,-79.859,119.637C-78.048,114.408,-76.065,109.154,-73.417,104.318C-68.766,95.826,-68.561,87.155,-71.041,78.155C-74.051,67.231,-79.855,57.81,-87.32,48.183Z" /></g></g><g transform="matrix(1,0,0,1,250,247.815)" visibility="hidden" id="i9"><animate repeatCount="indefinite" begin="0s" calcMode="discrete" dur="1s" values="hidden; visible; hidden; hidden" keyTimes="0; 0.4; 0.467; 1" attributeName="visibility" /><g id="i3"><path fill="#ff1e11" d="M-100.259,-1.808C-101.333,4.821,-103.071,10.249,-109.683,13.622C-110.545,9.565,-111.437,6.078,-112.01,2.538C-113.918,-9.24,-113.322,-10.972,-103.137,-16.784C-95.441,-21.176,-90.946,-26.769,-93.802,-36.459C-86.408,-36.197,-82.407,-32.05,-79.936,-26.675C-77.296,-20.933,-75.547,-14.777,-73.481,-8.777C-71.847,-4.03,-70.618,0.879,-68.678,5.493C-65.925,12.038,-60.742,15.215,-53.546,14.781C-51.432,14.653,-49.22,14.738,-47.234,14.13C-27.433,8.069,-9.649,-1.338,5.04,-16.359C22.925,-34.648,25.491,-59.834,14.569,-81.011C10.116,-89.645,4.229,-97.649,-1.768,-105.345C-6.838,-111.852,-9.07,-111.299,-13.481,-104.302C-13.891,-103.652,-14.416,-103.075,-14.931,-102.41C-21.127,-122.294,-9.308,-146.986,7.679,-150.498C5.91,-119.618,16.412,-94.58,42.848,-77.279C60.161,-65.949,67.562,-44.013,58.759,-22.081C55.605,-22.728,52.387,-23.705,49.107,-24.008C31.087,-25.674,20.423,-12.019,16.509,-0.037C12.161,13.276,12.925,26.667,18.771,39.544C24.73,52.669,39.368,60.827,55.968,57.229C68.288,54.558,73.748,47.29,73.918,34.239C82.972,33.654,90.154,37.285,96.165,43.685C101.739,49.62,104.951,56.848,107.19,64.573C111.646,79.947,113.555,95.594,112.648,112.679C110.485,111.254,109.065,110.365,107.695,109.406C105.091,107.582,102.657,105.467,99.9,103.921C92.821,99.952,88.251,101.797,86.15,109.575C83.375,119.848,84.107,137.306,84.323,137.79C93.232,157.732,94.444,174.815,77.509,189.026C63.681,200.63,47.438,206.388,29.965,209.634C16.585,212.12,3.147,213.103,-10.411,212.565C-32.755,211.679,-46.068,205.408,-63.281,190.396C-78.481,177.14,-92.812,143.258,-82.935,123.48C-76.309,110.213,-68.562,110.756,-61.891,97.511C-60.021,93.799,-58.103,91.637,-57.549,87.537C-56.715,81.359,-58.876,77.934,-64.709,75.802C-69.147,74.18,-73.933,73.525,-78.543,72.355C-88.095,69.931,-89.688,66.563,-85.975,57.417C-83.094,50.319,-80.009,43.261,-77.78,35.952C-75.467,28.369,-76.476,20.691,-79.632,13.404C-83.412,4.677,-89.995,-0.393,-100.259,-1.808Z" /></g></g><g transform="matrix(1,0,0,1,250,247.815)" visibility="hidden" id="i10"><animate repeatCount="indefinite" begin="0s" calcMode="discrete" dur="1s" values="hidden; visible; hidden; hidden" keyTimes="0; 0.467; 0.533; 1" attributeName="visibility" /><g id="i3"><path fill="#ff1e11" d="M-109.683,-1.752C-116.556,-12.135,-111.564,-28.325,-93.344,-36.673C-91.635,-34.2,-90.295,-31.26,-88.075,-29.336C-85.988,-27.527,-82.972,-26.79,-79.478,-25.17C-79.08,-22.112,-78.505,-18.514,-78.166,-14.893C-77.722,-10.152,-77.539,-5.388,-77.104,-0.646C-76.667,4.119,-74.113,7.136,-69.35,8.193C-68.321,8.421,-67.331,8.839,-66.339,9.211C-56.651,12.844,-53.894,16.056,-51.649,26.797C-44.792,25.454,-39.693,21.843,-36.358,15.795C-34.06,11.628,-32.033,7.31,-29.93,3.037C-27.784,-1.324,-24.457,-3.606,-19.532,-4.515C3.337,-8.736,17.722,-24.329,19.599,-47.31C20.772,-61.668,19.854,-75.948,14.592,-89.617C13.642,-92.084,12.441,-94.455,11.366,-96.874C8.34,-103.682,3.006,-107.367,-4.141,-109.183C-18.394,-112.804,-23.066,-127.031,-13.356,-138.25C-9.705,-142.468,-4.382,-145.239,0.459,-148.88C1.066,-147.255,1.503,-146.672,1.358,-146.39C-3.651,-136.662,-1.8,-127.731,5.066,-119.862C10.632,-113.483,16.831,-107.657,22.746,-101.582C30.884,-93.223,39.476,-85.25,47.03,-76.393C55.029,-67.014,58.564,-55.76,58.006,-43.197C57.752,-37.484,55.971,-32.861,51.775,-29.148C45.214,-23.343,38.263,-17.936,32.093,-11.746C27.471,-7.109,23.024,-1.938,19.914,3.767C14.889,12.986,17.158,23.466,24.895,30.645C36.281,41.21,50.116,44.049,64.855,41.158C69.942,40.16,74.433,36.123,79.67,33.211C99.935,47.33,117.5,88.873,111.412,109.858C110.981,109.654,110.352,109.566,110.151,109.226C107.807,105.255,105.495,101.445,99.889,101.861C92.879,102.381,87.037,104.837,83.068,110.92C79.328,116.653,79.378,122.985,80.255,129.38C80.686,132.52,81.438,135.636,82.294,138.693C84.615,146.982,87.5,145.685,87.949,164.073C88.056,168.457,86.325,172.902,85.708,177.365C84.039,189.443,71.531,197.082,61.126,202.621C52.346,207.295,42.744,209.425,33.006,210.689C12.911,213.298,-7.297,213.441,-27.342,210.743C-44.673,208.41,-60.679,196.581,-73.91,184.683C-82.408,177.041,-80.546,156.357,-81.329,144.519C-82.148,132.133,-79.37,123.912,-70.036,116.185C-62.355,109.826,-60.168,106.931,-51.01,103.35C-41.177,99.505,-30.821,100.03,-21.493,95.126C-9.48,88.81,-3.063,85.703,-6.15,72.644C-6.797,69.906,-8.337,68.379,-11.082,68.448C-13.713,68.515,-16.393,68.694,-18.945,69.282C-22.036,69.994,-25.075,71.037,-28.033,72.2C-40.003,76.905,-57.299,76.928,-64.96,67.969C-75.569,55.562,-73.293,36.308,-76.242,20.434C-77.159,15.498,-77.732,10.445,-77.877,5.429C-78.169,-4.674,-89.162,-13.92,-101.59,-9.988C-104.888,-8.945,-107.107,-4.493,-109.683,-1.752Z" /></g></g><g transform="matrix(1,0,0,1,250,247.815)" visibility="hidden" id="i11"><animate repeatCount="indefinite" begin="0s" calcMode="discrete" dur="1s" values="hidden; visible; hidden; hidden" keyTimes="0; 0.533; 0.6; 1" attributeName="visibility" /><g id="i2"><path fill="#ff1e11" d="M106.647,103.044C97.047,96.597,91.446,96.138,83.699,100.224C71.5,114.186,87.847,131.096,89.361,132.88C101.5,147.185,103,194.186,67.634,203.158C57.433,205.746,56.241,208.93,45.831,210.521C23.348,213.956,0.863,213.533,-21.332,207.895C-24.915,206.985,-28.394,205.656,-31.987,204.796C-55.226,199.232,-67.953,183.35,-73.526,161.274C-77.239,146.567,-78.993,123.381,-66.586,113.791C-58.921,107.866,-50.025,103.456,-41.42,98.855C-36.541,96.246,-31.213,94.393,-25.95,92.604C-13.544,88.388,-1.719,88.505,2.571,76.896C5.433,69.152,2.847,60.378,-3.498,55.418C-10.737,49.759,-19.037,47.515,-28.148,48.933C-36.47,50.228,-40.015,54.142,-40.998,62.608C-41.171,64.098,-41.333,65.589,-41.504,67.122C-61.76,61.761,-82.958,23.1,-73.666,4.606C-66.743,9.28,-64.203,9.337,-57.782,3.59C-52.247,-1.364,-47.182,-6.845,-41.899,-12.082C-33.676,-20.234,-24.428,-26.631,-13.039,-29.674C-3.82,-32.137,1.99,-38.649,4.978,-47.305C7.646,-55.035,10.439,-63.018,11.149,-71.069C13.055,-92.68,4.956,-110.469,-12.153,-123.914C-14.147,-125.481,-16.861,-126.377,-19.385,-126.965C-22.574,-127.708,-23.784,-129.737,-24.102,-132.567C-25.331,-143.496,-14.872,-158.225,-4.295,-160.419C-2.827,-160.723,-1.242,-160.462,0.46,-160.462C-9.06,-143.943,-7.321,-127.97,6.242,-114.736C13.617,-107.54,21.796,-101.051,30.178,-95.031C42.383,-86.266,54.583,-60.624,48.385,-40.351C45.978,-40.106,43.395,-39.813,40.806,-39.585C31.452,-38.761,23.527,-34.607,16.473,-28.751C11.801,-24.873,9.475,-19.54,8.562,-13.568C5.388,7.193,18.985,32.052,38.605,39.366C44.817,41.682,52.137,41.82,58.907,41.603C64.912,41.411,70.517,35.706,74.168,28.315C81.74,29.369,87.587,33.535,92.385,39.297C99.196,47.476,102.834,57.24,104.143,67.567C105.572,78.842,105.801,90.27,106.647,103.044Z" /></g><g id="i3"><path fill="#ff1e11" d="M-76.609,-1.044C-83.37,-0.438,-87.102,-3.458,-90.154,-7.04C-92.697,-10.024,-94.542,-13.635,-96.495,-17.082C-99.968,-23.21,-105.236,-23.964,-109.806,-18.759C-111.182,-17.192,-112.257,-15.362,-113.757,-13.247C-113.532,-15.778,-113.449,-17.801,-113.16,-19.794C-110.874,-35.55,-101.577,-35.78,-90.05,-33.91C-84.621,-33.029,-82.912,-30.11,-82.9,-23.276C-82.886,-15.725,-82.141,-8.471,-76.609,-1.044Z" /></g></g><g transform="matrix(1,0,0,1,250,247.815)" visibility="hidden" id="i12"><animate repeatCount="indefinite" begin="0s" calcMode="discrete" dur="1s" values="hidden; visible; hidden; hidden" keyTimes="0; 0.6; 0.667; 1" attributeName="visibility" /><g id="i1"><path fill="#ff1e11" d="M106.037,95.299C100.866,89.2,94.962,84.927,86.99,83.12C68.566,78.943,56.113,88.083,60.971,112.324C62.973,122.313,66.905,131.005,77.02,135.445C78.69,136.178,84.079,138.035,85.633,139.05C113.172,157.043,90.987,194.393,70.993,204.13C60.269,209.352,48.942,212.168,37.278,212.359C17.142,212.688,-3.143,213.278,-23.129,211.335C-55.289,208.208,-79.052,183.775,-82.333,150.942C-75.171,149.795,-72.431,144.708,-70.639,138.078C-66.187,121.603,-53.939,111.238,-40.277,102.773C-31.333,97.231,-21.463,93.088,-11.765,88.877C8.594,80.037,13.503,67.488,3.878,46.635C-4.886,27.647,-26.521,22.324,-44.536,34.105C-47.404,35.981,-50.042,38.207,-52.724,40.224C-71.504,29.113,-76.042,-2.054,-65.569,-13.704C-46.69,-5.52,-31.797,-13.711,-18.185,-26.093C-6.285,-36.918,2.755,-50.07,10.723,-63.9C13.595,-68.886,15.642,-74.486,17.222,-80.046C19.667,-88.648,18.289,-96.952,13.721,-107.713C35.161,-104.62,53.549,-70.862,45.473,-48.469C33.425,-50.072,22.564,-46.797,13.485,-38.362C7.266,-32.584,3.368,-25.488,2.119,-17.019C-0.395,0.034,10.718,19.432,26.774,26.006C46.977,34.278,62.543,30.577,73.861,14.809C102.583,29.696,117.504,66.584,106.037,95.299Z" /></g><g id="i2"><path fill="#ff1e11" d="M1.066,-173.862C-8.19,-167.785,-9.621,-158.513,-9.562,-149.459C-13.031,-150.071,-16.198,-150.933,-19.404,-151.124C-24.128,-151.406,-26.351,-153.542,-25.266,-158.115C-24.749,-160.295,-23.414,-162.52,-21.862,-164.173C-15.827,-170.603,-8.266,-173.88,1.066,-173.862Z" /></g><g id="i3"><path fill="#ff1e11" d="M-89.804,-29.701C-94.625,-37.979,-102.119,-35.896,-109.915,-36.256C-105.265,-39.7,-101.649,-41.92,-96.926,-42.019C-90.921,-42.145,-88.826,-40.28,-88.946,-34.256C-88.976,-32.733,-89.504,-31.219,-89.804,-29.701Z" /></g></g><g transform="matrix(1,0,0,1,250,247.815)" visibility="hidden" id="i13"><animate repeatCount="indefinite" begin="0s" calcMode="discrete" dur="1s" values="hidden; visible; hidden; hidden" keyTimes="0; 0.667; 0.733; 1" attributeName="visibility" /><g id="i1"><path fill="#ff1e11" d="M-87.094,122.595C-77.358,123.738,-72.61,121.035,-71.524,111.589C-70.034,98.632,-62.587,89.513,-53.584,81.642C-43.631,72.941,-32.659,65.41,-22.197,57.285C-18.432,54.361,-14.592,51.456,-11.247,48.084C-0.401,37.151,1.968,23.893,-4.85,10.174C-9.9,0.013,-17.391,-8.195,-27.283,-14.02C-27.511,-14.155,-27.716,-14.337,-27.954,-14.447C-35.744,-18.053,-44.608,-20.457,-49.41,-7.455C-58.893,-11.553,-64.51,-18.658,-66.356,-28.534C-68.551,-40.274,-65.411,-50.424,-56.18,-58.461C-48.061,-49.981,-45.712,-49.862,-37.471,-58.098C-32.031,-63.535,-26.912,-69.295,-21.692,-74.95C-14.408,-82.84,-6.211,-89.289,4.037,-93.108C8.943,-94.936,13.744,-97.467,18.016,-100.493C29.578,-108.682,31.606,-120.501,23.955,-132.481C22.868,-134.182,21.559,-135.741,20.182,-137.596C37.668,-138.136,53.983,-121.107,46.344,-95.26C43.227,-96.287,40.169,-97.638,36.967,-98.284C28.478,-99.996,21.64,-95.575,16.214,-90.344C4.598,-79.145,-1.384,-65.166,0.721,-48.714C2.704,-33.212,12.437,-24.317,26.908,-20.07C39.159,-16.474,51.744,-17.407,64.056,-18.937C67.9,-19.415,72.235,-23.816,74.418,-27.548C76.577,-31.239,76.15,-36.329,71.237,-41.397C75.358,-40.42,78.142,-40.207,80.522,-39.114C88.637,-35.387,93.831,-28.664,97.53,-20.85C103.268,-8.727,105.107,4.466,106.773,17.565C107.64,24.379,105.527,30.969,101.038,37.516C100.277,34.43,99.796,32.125,99.137,29.873C97.59,24.587,94.058,21.483,89.153,20.966C83.925,20.415,80.703,21.82,79.141,26.776C74.53,41.403,68.804,55.922,66.435,70.944C64.144,85.468,65.054,100.421,74.003,113.811C80.435,123.436,86.756,133.271,90.015,144.737C96.242,166.643,86.623,188.999,66.025,198.589C46.282,207.781,25.147,211.326,3.626,212.515C-11.017,213.324,-25.486,211.644,-39.314,206.317C-54.517,200.46,-66.11,190.445,-73.797,176.001C-74.915,173.9,-76.115,171.839,-77.375,169.82C-86.455,155.275,-89.531,139.514,-87.094,122.595Z" /></g><g id="i2"><path fill="#ff1e11" d="M-4.468,-191.629C-12.249,-190.333,-11.932,-183.282,-14.407,-178.142C-15.811,-177.997,-17.251,-177.436,-18.352,-177.828C-20.145,-178.466,-22.842,-179.488,-23.115,-180.78C-23.52,-182.699,-22.819,-185.831,-21.401,-186.977C-16.613,-190.846,-11.143,-193.523,-4.468,-191.629Z" /></g><g id="i3"><path fill="#ff1e11" d="M-93.636,-82.034C-98.507,-85.017,-102.529,-87.48,-106.964,-90.196C-95.937,-93.319,-92.342,-91.405,-93.636,-82.034Z" /></g></g><g transform="matrix(1,0,0,1,250,247.815)" visibility="hidden" id="i14"><animate repeatCount="indefinite" begin="0s" calcMode="discrete" dur="1s" values="hidden; visible; hidden; hidden" keyTimes="0; 0.733; 0.8; 1" attributeName="visibility" /><g id="i1"><path fill="#ff1e11" d="M-97.309,101.911C-95.439,104.632,-94.594,106.356,-93.305,107.632C-90.755,110.158,-87.183,109.7,-85.227,106.718C-84.512,105.628,-84.161,104.306,-83.596,103.112C-75.12,85.196,-61.633,72.772,-42.887,66.221C-34.122,63.158,-25.517,59.904,-18.061,54.105C-9.057,47.103,-3.57,38.315,-5.365,26.701C-7.405,13.496,-12.532,2.279,-27.317,-1.435C-32.927,-2.844,-38.427,-4.973,-43.7,-7.379C-52.312,-11.307,-55.386,-10.324,-58.417,-1.778C-70.495,-11.518,-71.716,-40.871,-59.964,-54.961C-54.621,-51.341,-54.182,-51.189,-49.986,-55.049C-45.899,-58.809,-41.47,-62.466,-38.373,-66.98C-30.452,-78.526,-19.347,-81.041,-6.421,-80.29C-7.686,-74.634,-8.919,-69.534,-9.955,-64.394C-11.392,-57.259,-9.529,-50.954,-5.52,-44.891C2.325,-33.025,12.008,-23.648,26.023,-19.58C27.798,-19.065,29.626,-18.356,31.426,-18.368C39.029,-18.418,45.222,-16.384,49.838,-9.593C52.886,-5.11,58.493,-5.737,62.033,-9.994C65.707,-14.411,66.639,-19.47,65.185,-24.94C64.664,-26.9,63.711,-28.745,62.911,-30.754C74.827,-31.541,88.765,-21.714,94.428,-8.843C101.379,6.954,100.359,28.28,91.918,36.537C91.385,27.465,86.228,21.533,79.487,16.176C74.162,21.12,72.532,27.556,70.572,33.781C69.699,36.552,69.395,39.506,68.489,42.263C65.429,51.572,59.231,58.081,49.475,59.462C32.861,61.814,32.846,69.833,33.134,81.534C33.344,90.07,37.008,96.953,44.305,101.478C49.021,104.403,54.103,106.733,58.997,109.374C64.074,112.114,68.155,115.579,69.064,121.828C69.356,123.837,70.452,125.856,71.6,127.592C76.546,135.074,81.681,134.866,86.747,126.129C87.388,128.719,88.034,130.546,88.274,132.423C90.098,146.691,82.882,160.462,79.937,174.695C77.518,186.386,70.666,194.661,60.339,200.366C48.962,206.651,36.468,209.27,23.831,210.4C9.321,211.698,2.641,213.174,-11.878,212.474C-56.252,210.333,-86.284,186.581,-97.119,139.888C-99.913,127.849,-99.325,115.734,-97.309,101.911Z" /></g><g id="i2"><path fill="#ff1e11" d="M12.102,-140.858C28.005,-135.843,39.419,-116.418,37.918,-94.121C29.772,-99.579,21.394,-102.591,12.569,-96.795C13.421,-104.118,14.97,-111.337,14.9,-118.54C14.829,-125.805,13.15,-133.053,12.102,-140.858Z" /></g><g id="i3"><path fill="#ff1e11" d="M-5.575,-200.229C-9.612,-196.367,-13.592,-191.887,-20.1,-190.272C-22.972,-196.633,-20.787,-201.648,-17.771,-206.269C-15.838,-209.23,-13.044,-208.88,-10.672,-206.048C-9.143,-204.222,-7.536,-202.462,-5.575,-200.229Z" /></g></g><g transform="matrix(1,0,0,1,250,247.815)" visibility="hidden" id="i15"><animate repeatCount="indefinite" begin="0s" calcMode="discrete" dur="1s" values="hidden; visible; hidden; hidden" keyTimes="0; 0.8; 0.867; 1" attributeName="visibility" /><g id="i2"><path fill="#ff1e11" d="M-93.886,87.648C-86.346,96.284,-81.051,96.56,-75.289,88.118C-71.023,81.867,-67.736,74.727,-65.226,67.558C-62.567,59.964,-57.792,54.786,-50.98,51.33C-42.25,46.901,-33.188,43.121,-24.505,38.606C-19.387,35.945,-14.37,32.82,-10.017,29.078C-7.928,27.282,-6.362,23.512,-6.511,20.74C-6.927,12.996,-9.144,5.567,-14.353,-0.523C-21.438,-8.806,-30.633,-14.052,-40.703,-17.674C-48.549,-20.496,-55.242,-17.538,-60.954,-11.995C-72.285,-26.256,-70.174,-49.485,-57.211,-60.113C-55.43,-57.907,-54.032,-54.464,-51.797,-53.789C-47.998,-52.641,-44.768,-55.212,-42.67,-58.654C-40.881,-61.59,-38.982,-64.471,-37.369,-67.502C-30.954,-79.558,-20.42,-84.456,-7.333,-84.949C-4.151,-85.069,-0.96,-84.967,3.157,-84.967C1.759,-82.837,0.558,-81.257,-0.378,-79.535C-3.398,-73.982,-7.076,-68.636,-9.112,-62.732C-12.632,-52.526,-9.342,-44.274,0.362,-39.465C6.419,-36.463,13.221,-34.17,19.901,-33.4C30.34,-32.197,38.514,-27.999,45.045,-19.953C47.784,-16.579,51.339,-14.282,55.892,-14.038C62.599,-13.678,65.482,-17.014,63.199,-23.287C61.612,-27.648,59.005,-31.639,56.847,-35.806C63.623,-38.122,70.958,-38.478,78.201,-36.095C85.76,-33.608,90.453,-28.345,92.632,-20.538C95.61,-9.869,95.531,4.197,91.312,13.939C91.119,10.867,90.858,9.188,90.937,7.524C91.247,0.965,89.122,-1.883,82.664,-2.525C76.023,-3.186,69.35,-3.41,62.98,1.018C62.829,1.83,62.484,3.064,62.383,4.318C61.281,17.982,54.501,28.052,43.439,35.901C32.509,43.656,26.523,54.146,28.882,68.034C31.515,83.535,36.84,97.753,49.639,107.984C52.316,110.124,55.122,112.272,58.198,113.716C72.885,120.609,83.332,119.363,92.503,105.771C96.114,112.69,96.919,119.961,97.418,127.157C99.107,151.538,89.414,171.274,71.088,186.602C54.236,200.697,34.135,207.939,12.543,211.199C-1.208,213.275,-14.907,213.401,-28.566,210.352C-37.236,208.417,-45.227,204.958,-52.244,199.569C-78.255,179.591,-94.896,154.322,-97.319,120.696C-98.109,109.728,-97.371,99.202,-93.886,87.648Z" /></g><g id="i3"><path fill="#ff1e11" d="M34.68,-113.305C27.809,-112.907,21.125,-112.519,13.409,-112.072C18.776,-125.463,16.654,-137.5,10.2,-149.027C24.502,-152.797,42.63,-130.101,34.68,-113.305Z" /></g></g><g transform="matrix(1,0,0,1,250,247.815)" visibility="hidden" id="i16"><animate repeatCount="indefinite" begin="0s" calcMode="discrete" dur="1s" values="hidden; visible; hidden; hidden" keyTimes="0; 0.867; 0.933; 1" attributeName="visibility" /><g id="i1"><path fill="#ff1e11" d="M-87.402,71.099C-82.359,74.028,-82.359,74.028,-81.908,84.027C-73.952,86.629,-65.743,86.105,-58.159,82.99C-33.215,72.743,-14.822,55.704,-5.718,29.75C-2.066,19.339,-3.497,9.958,-11.96,2.146C-19.478,-4.794,-27.815,-10.136,-37.86,-12.703C-44.607,-14.427,-50.963,-13.417,-57.211,-10.863C-67.477,-27.178,-60.6,-52.405,-43.426,-61.65C-41.471,-55.567,-41.472,-55.567,-34.693,-55.394C-26.543,-72.121,-13.35,-82.224,7.285,-84.218C4.758,-82.182,3.213,-81.168,1.948,-79.878C-2.586,-75.256,-4.534,-70.015,-3.236,-63.289C-0.764,-50.475,6.753,-41.088,16.681,-33.631C28.038,-25.101,40.795,-19.43,55.004,-18.425C55.004,-15.619,54.013,-12.159,55.282,-10.077C56.561,-7.978,60.075,-7.225,62.63,-5.924C63.942,-5.256,65.299,-4.677,66.451,-2.958C65.066,-2.837,63.684,-2.65,62.297,-2.605C53.434,-2.319,52.434,-1.618,51.867,7.58C51.281,17.073,47.72,25.012,40.998,31.632C38.158,34.429,35.439,37.359,32.493,40.039C23.696,48.041,20.115,57.905,22.787,69.455C24.745,77.92,27.219,86.34,30.352,94.436C33.207,101.815,38.769,107.374,46.141,110.515C51.963,112.996,57.953,115.275,64.078,116.805C71.835,118.743,73.913,117.311,77.936,108.973C79.676,110.685,81.359,112.152,82.823,113.81C92.463,124.727,99.415,137.135,102.783,151.347C106.53,167.16,100.851,180.006,86.507,187.273C68.301,196.497,49.572,204.496,29.46,208.728C1.109,214.693,-26.854,214.756,-54.092,203.338C-87.599,189.292,-107.1,159.653,-103.475,120.219C-101.87,102.755,-96.012,86.869,-87.402,71.099Z" /></g><g id="i2"><path fill="#ff1e11" d="M77.316,-14.823C75.875,-22.765,74.054,-31.346,64.064,-35.505C85.794,-38.679,99.824,-27.823,100.675,-10.112C97.061,-11.648,93.452,-13.828,89.555,-14.653C85.826,-15.442,81.799,-14.823,77.316,-14.823Z" /></g><g id="i3"><path fill="#ff1e11" d="M19.311,-157.911C30.328,-150.545,35.778,-140.18,39.101,-127.025C33.172,-130.669,28.284,-134.388,21.319,-131.209C20.668,-139.871,20.021,-148.475,19.311,-157.911Z" /></g></g><g transform="matrix(1,0,0,1,250,247.815)" visibility="hidden" id="i17"><animate repeatCount="indefinite" begin="0s" calcMode="discrete" dur="1s" values="hidden; visible; visible" keyTimes="0; 0.933; 1" attributeName="visibility" /><g id="i1"><path fill="#ff1e11" d="M-90.189,81.93C-88.236,83.463,-86.4,85.96,-84.344,86.156C-82.913,86.292,-80.582,83.548,-79.678,81.612C-71.619,64.35,-58.425,53.926,-39.894,49.225C-22.235,44.745,-10.369,26.826,-11.764,8.661C-12.213,2.81,-15.021,-0.008,-21.439,-0.915C-24.839,-1.396,-28.314,-1.487,-31.658,-2.204C-49.621,-6.056,-53.274,-21.368,-51.608,-33.456C-49.239,-50.652,-39.094,-62.983,-26.494,-73.626C-15.426,-82.975,-2.908,-89.841,11.485,-92.617C16,-93.488,20.672,-93.546,25.594,-92.836C23.72,-91.51,21.873,-90.143,19.968,-88.864C9.513,-81.844,2.499,-71.895,-2.954,-60.89C-7.757,-51.196,-4.763,-45.345,5.635,-42.32C8.432,-41.506,11.271,-40.83,14.047,-39.953C22.138,-37.395,27.841,-32.269,30.746,-24.191C31.82,-21.204,32.891,-18.216,34.03,-15.254C36.466,-8.92,40.649,-5.046,47.894,-5.758C53.651,-6.324,59.398,-6.992,65.352,-7.637C67.31,-0.008,66.024,7.174,61.316,13.389C57.166,18.868,52.507,23.999,47.738,28.962C42.403,34.515,36.528,39.546,31.175,45.083C12.677,64.216,18.931,97.687,42.979,109.177C48.444,111.788,54.147,112.574,60.028,111.987C67.904,111.201,70.145,109.364,74.286,101.067C84.7,107.66,92.162,116.799,97.309,127.72C101.028,135.61,99.24,144.074,97.337,152.013C90.735,179.557,73.423,197.266,46.657,206.294C23.091,214.242,-1.024,213.777,-24.983,210.404C-53.336,206.413,-73.031,189.644,-86.064,164.519C-93.741,149.72,-98.392,133.887,-99.428,117.475C-99.94,109.358,-96.594,100.929,-94.557,92.75C-93.608,88.94,-91.619,85.389,-90.189,81.93Z" /></g><g id="i2"><path fill="#ff1e11" d="M31.335,-145.005C27.845,-145.005,24.518,-145.005,20.855,-145.005C19.105,-148.195,17.252,-151.571,15.404,-154.94C21.976,-156.18,26.407,-153.48,31.335,-145.005Z" /></g><g id="i3"><path fill="#ff1e11" d="M69.704,-27.795C80.319,-27.877,83.641,-24.705,84.434,-13.684C79.169,-18.728,74.88,-22.837,69.704,-27.795Z" /></g></g></svg>